HIERARCHY
ROOT hip
{
	OFFSET 0.000000 0.000000 0.000000
	CHANNELS 6 Xposition Yposition Zposition Zrotation Yrotation Xrotation 
	JOINT lhipjoint
	{
		OFFSET 0.000000 0.000000 0.000000
		CHANNELS 3 Zrotation Yrotation Xrotation
		JOINT lfemur
		{
			OFFSET 1.363060 -1.794630 0.839290
			CHANNELS 3 Zrotation Yrotation Xrotation
			JOINT ltibia
			{
				OFFSET 2.448110 -6.726130 0.000000
				CHANNELS 3 Zrotation Yrotation Xrotation
				JOINT lfoot
				{
					OFFSET 2.562200 -7.039590 0.000000
					CHANNELS 3 Zrotation Yrotation Xrotation
					JOINT ltoes
					{
						OFFSET 0.157640 -0.433110 2.322550
						CHANNELS 3 Zrotation Yrotation Xrotation
						End Site
						{
							OFFSET 0.000000 0.000000 0.000000
						}
					}
				}
			}
		}
	}
	JOINT rhipjoint
	{
		OFFSET 0.000000 0.000000 0.000000
		CHANNELS 3 Zrotation Yrotation Xrotation
		JOINT rfemur
		{
			OFFSET -1.305520 -1.794630 0.839290
			CHANNELS 3 Zrotation Yrotation Xrotation
			JOINT rtibia
			{
				OFFSET -2.542530 -6.985550 0.000000
				CHANNELS 3 Zrotation Yrotation Xrotation
				JOINT rfoot
				{
					OFFSET -2.568260 -7.056230 0.000000
					CHANNELS 3 Zrotation Yrotation Xrotation
					JOINT rtoes
					{
						OFFSET -0.164730 -0.452590 2.363150
						CHANNELS 3 Zrotation Yrotation Xrotation
						End Site
						{
							OFFSET 0.000000 0.000000 0.000000
						}
					}
				}
			}
		}
	}
	JOINT lowerback
	{
		OFFSET 0.000000 0.000000 0.000000
		CHANNELS 3 Zrotation Yrotation Xrotation
		JOINT upperback
		{
			OFFSET 0.028270 2.035590 -0.193380
			CHANNELS 3 Zrotation Yrotation Xrotation
			JOINT thorax
			{
				OFFSET 0.056720 2.048850 -0.042750
				CHANNELS 3 Zrotation Yrotation Xrotation
				JOINT lowerneck
				{
					OFFSET 0.000000 0.000000 0.000000
					CHANNELS 3 Zrotation Yrotation Xrotation
					JOINT upperneck
					{
						OFFSET -0.054170 1.746240 0.172020
						CHANNELS 3 Zrotation Yrotation Xrotation
						JOINT head
						{
							OFFSET 0.104070 1.761360 -0.123970
							CHANNELS 3 Zrotation Yrotation Xrotation
							End Site
							{
								OFFSET 0.000000 0.000000 0.000000
							}
						}
					}
				}
				JOINT lclavicle
				{
					OFFSET 0.000000 0.000000 0.000000
					CHANNELS 3 Zrotation Yrotation Xrotation
					JOINT lhumerus
					{
						OFFSET 3.362410 1.200890 -0.311210
						CHANNELS 3 Zrotation Yrotation Xrotation
						JOINT lradius
						{
							OFFSET 4.983000 -0.000000 -0.000000
							CHANNELS 3 Zrotation Yrotation Xrotation
							JOINT lwrist
							{
								OFFSET 3.483560 -0.000000 -0.000000
								CHANNELS 3 Zrotation Yrotation Xrotation
								JOINT lhand
								{
									OFFSET 0.000000 0.000000 0.000000
									CHANNELS 3 Zrotation Yrotation Xrotation
									JOINT lfingers
									{
										OFFSET 0.715260 -0.000000 -0.000000
										CHANNELS 3 Zrotation Yrotation Xrotation
										End Site
										{
											OFFSET 0.000000 0.000000 0.000000
										}
									}
								}
								JOINT lthumb
								{
									OFFSET 0.000000 0.000000 0.000000
									CHANNELS 3 Zrotation Yrotation Xrotation
									End Site
									{
										OFFSET 0.000000 0.000000 0.000000
									}
								}
							}
						}
					}
				}
				JOINT rclavicle
				{
					OFFSET 0.000000 0.000000 0.000000
					CHANNELS 3 Zrotation Yrotation Xrotation
					JOINT rhumerus
					{
						OFFSET -3.136600 1.374050 -0.404650
						CHANNELS 3 Zrotation Yrotation Xrotation
						JOINT rradius
						{
							OFFSET -5.241900 -0.000000 -0.000000
							CHANNELS 3 Zrotation Yrotation Xrotation
							JOINT rwrist
							{
								OFFSET -3.444170 -0.000000 -0.000000
								CHANNELS 3 Zrotation Yrotation Xrotation
								JOINT rhand
								{
									OFFSET 0.000000 0.000000 0.000000
									CHANNELS 3 Zrotation Yrotation Xrotation
									JOINT rfingers
									{
										OFFSET -0.622530 -0.000000 -0.000000
										CHANNELS 3 Zrotation Yrotation Xrotation
										End Site
										{
											OFFSET 0.000000 0.000000 0.000000
										}
									}
								}
								JOINT rthumb
								{
									OFFSET 0.000000 0.000000 0.000000
									CHANNELS 3 Zrotation Yrotation Xrotation
									End Site
									{
										OFFSET 0.000000 0.000000 0.000000
									}
								}
							}
						}
					}
				}
			}
		}
	}
}
MOTION
Frames: 5
Frame Time: 0.008333
0.142972 1.937663 -1.054102 178.816223 16.872328 117.809435 3.811071 3.263434 -1.450022 -2.456344 -12.878340 -58.379324 12.933376 20.777755 68.004602 2.404351 9.587227 34.783073 1.810900 -8.460600 -24.122200 -4.529768 -3.772021 2.818454 31.231870 7.245336 -74.505514 -22.716757 -20.881990 95.404621 2.093049 -19.586871 9.708411 -0.210200 -2.951900 8.145000 -10.901598 -10.022473 65.106951 0.831651 -8.111358 0.674551 3.835340 1.477133 6.995438 -6.013358 5.296718 -10.979253 7.295965 7.142046 3.283202 0.694000 3.862500 -4.622100 -3.284843 -8.430154 4.139320 -33.588374 -24.850028 18.739325 84.075258 -57.918164 -50.262647 2.367245 -1.947597 138.402958 31.736308 19.527302 9.748500 -7.125000 0.000000 0.000000 4.537300 48.386100 0.379700 6.905339 7.618228 6.929382 53.774925 -6.500265 9.049410 -102.492133 53.901437 -69.271601 0.197644 0.134370 157.940449 -21.833177 1.889487 -0.770800 7.125000 0.000000 0.000000 3.844600 -27.878700 1.604000 
0.135523 1.939308 -1.062518 178.823596 17.152526 117.861019 3.809712 3.271827 -1.439319 -2.122445 -12.955107 -58.307198 12.843015 20.747879 67.756572 2.446500 9.482171 34.891591 1.843000 -8.531100 -24.339300 -4.557396 -3.764782 2.807081 31.313067 7.478029 -74.357304 -22.608454 -20.872013 95.103056 2.014560 -19.307670 9.938126 -0.219400 -3.015200 8.321000 -10.895054 -10.031784 64.842113 0.862752 -8.200611 0.646309 3.947851 1.340739 6.969407 -5.904770 5.432708 -11.043071 7.264425 7.328925 3.314860 0.606200 3.934700 -4.570100 -3.231366 -8.385514 4.273352 -34.768221 -24.357365 19.190997 85.761956 -57.645263 -51.752492 2.370084 -1.919750 138.402678 31.697998 19.613667 9.804800 -7.125000 0.000000 0.000000 4.510900 48.506100 0.390900 6.909797 7.602998 6.869373 53.888390 -6.094642 8.561748 -103.731406 53.708785 -70.575272 0.195947 0.042459 158.254823 -21.245608 1.374639 -0.516100 7.125000 0.000000 0.000000 4.290900 -28.532400 1.724600 
0.128075 1.940662 -1.067451 178.834003 17.405240 117.867750 3.809445 3.280955 -1.425521 -1.827690 -13.048545 -58.192561 12.753631 20.715631 67.524770 2.483684 9.314323 34.937427 1.872100 -8.594400 -24.534600 -4.586534 -3.759233 2.795949 31.380966 7.678036 -74.165009 -22.494757 -20.861993 94.786670 1.939878 -19.039651 10.146300 -0.235700 -3.124400 8.625300 -10.906403 -10.039691 64.648714 0.893729 -8.300760 0.609726 4.056476 1.206637 6.902428 -5.794056 5.584894 -11.068465 7.247407 7.526965 3.345828 0.524300 4.011100 -4.527200 -3.169636 -8.352368 4.400832 -35.963361 -23.884008 19.636507 87.369004 -57.362184 -53.195605 2.363824 -1.892297 138.405952 31.703745 19.629685 9.837300 -7.125000 0.000000 0.000000 4.525400 48.559400 0.398100 6.898509 7.593080 6.807772 54.106604 -5.631742 8.114877 -104.790239 53.521744 -71.670925 0.196816 -0.045245 158.794219 -20.569037 0.783536 -0.246800 7.125000 0.000000 0.000000 4.821900 -29.256400 1.856200 
0.120626 1.942210 -1.069966 178.840654 17.671765 117.901236 3.808760 3.289817 -1.411790 -1.517817 -13.113259 -58.107798 12.667638 20.686303 67.294227 2.513377 9.192666 34.979288 1.814700 -8.468800 -24.147400 -4.615349 -3.752535 2.783303 31.468735 7.885946 -73.981150 -22.371468 -20.851533 94.443906 1.872044 -18.780471 10.311288 -0.251900 -3.229100 8.917300 -10.905547 -10.041751 64.427051 0.926477 -8.380617 0.575153 4.176710 1.075888 6.830743 -5.674172 5.728668 -11.060899 7.212168 7.714750 3.360330 0.429500 4.080900 -4.501300 -3.100661 -8.320391 4.520409 -37.161854 -23.459714 20.084614 88.925643 -57.075563 -54.607907 2.353170 -1.863230 138.398062 31.750551 19.633168 9.878800 -7.125000 0.000000 0.000000 4.578300 48.608900 0.408300 6.884373 7.582587 6.748555 54.393926 -5.040659 7.681834 -105.667639 53.345631 -72.563745 0.203071 -0.131957 159.582563 -19.743349 0.158166 0.017100 7.125000 0.000000 0.000000 5.488500 -30.007800 2.016200 
0.114339 1.944338 -1.071804 178.841922 17.953716 117.898927 3.810787 3.298926 -1.396659 -1.217803 -13.135577 -58.002008 12.577466 20.659789 67.086874 2.564689 8.905568 35.009221 1.778200 -8.387800 -23.898400 -4.649749 -3.746843 2.767955 31.588165 8.090824 -73.741067 -22.247995 -20.838256 94.099495 1.821868 -18.580799 10.415171 -0.275000 -3.373300 9.319800 -10.912706 -10.038057 64.254553 0.957580 -8.456014 0.539182 4.294920 0.954833 6.745890 -5.586832 5.867795 -11.038449 7.191609 7.893032 3.352447 0.354700 4.148400 -4.493000 -3.030446 -8.297896 4.629172 -38.348543 -23.069371 20.533580 90.381820 -56.793883 -55.937732 2.336993 -1.833496 138.394371 31.777748 19.564683 9.873300 -7.125000 0.000000 0.000000 4.612500 48.580400 0.408200 6.858696 7.571418 6.688319 54.760447 -4.413218 7.277196 -106.504248 53.162147 -73.398456 0.207660 -0.221359 160.524223 -18.814924 -0.585288 0.297400 7.125000 0.000000 0.000000 6.258000 -30.873300 2.171500 
